<svg width="107" height="101" viewBox="0 0 107 101" fill="none" xmlns="http://www.w3.org/2000/svg">
<path d="M41.9407 44.0288C42.871 43.8146 43.8069 43.6232 44.7286 43.3804C46.5547 42.8977 47.1901 42.4664 48.5783 41.2839C49.1336 40.8127 49.9236 40.5699 50.642 40.2071C49.3855 35.1258 46.2341 30.6186 41.4542 29.6532C41.9293 29.2505 42.413 28.8906 42.828 28.4736C43.7268 27.5653 43.8041 26.6541 43.1343 25.6173C42.7471 25.0475 42.4762 24.407 42.3372 23.7327C42.1983 23.0583 42.1939 22.3632 42.3243 21.6871C42.6821 19.8905 44.4366 18.5909 46.7751 18.311C47.6028 18.2176 48.4351 18.1699 49.2681 18.1682C51.0084 18.1682 52.056 19.0964 52.6113 20.4532C52.9204 21.2072 53.6045 21.9299 53.052 22.901C52.9032 23.1581 53.4184 23.6979 53.573 24.1263C53.8592 24.9375 54.7952 25.5887 53.7218 26.6541C53.1179 27.2482 53.1494 28.4136 52.9977 29.3333C52.8145 30.4273 52.6027 30.6243 51.3919 30.4387C50.8195 30.3501 50.227 30.2073 49.6116 30.0817C49.0392 30.7215 49.0391 31.3413 49.3998 32.141C50.3329 34.1404 51.1343 36.1798 51.9758 38.2163C52.0645 38.5663 52.1267 38.9224 52.1619 39.2817C52.2535 39.693 52.2334 40.2414 52.5168 40.4756C53.9021 41.6181 53.5587 43.0605 53.0005 44.2402C52.4653 45.3656 52.6571 46.4795 52.3766 47.5763C51.9529 49.2358 52.3766 50.781 53.0578 52.3434C54.217 54.9683 55.236 57.6447 56.275 60.3124C56.5297 60.9608 56.607 61.6663 56.8274 62.3261C57.1336 63.243 56.4381 63.6857 55.7483 63.9028C55.4621 63.9913 54.7293 63.4857 54.5462 63.1116C53.8335 61.6263 53.2553 60.0896 52.6313 58.5701C52.5593 58.3287 52.433 58.107 52.2621 57.9217L59.7039 83.3882C58.5991 83.6282 58.7565 84.2851 58.9311 85.0477C59.5208 87.6184 61.1895 88.7866 64.0603 88.5666C64.6929 88.5181 65.334 88.3239 65.9494 88.381C66.4503 88.4295 67.1802 88.6523 67.3261 88.978C67.4721 89.3036 67.1544 90.0348 66.7909 90.2604C65.7032 90.9431 64.5011 91.4629 63.3562 92.0342C68.1991 92.2312 73.1365 92.2998 78.0425 92.674C82.9484 93.0481 87.8429 93.6222 92.7059 94.2992C97.5688 94.9761 102.4 95.8587 107 97.5953C105.474 97.4696 103.952 97.3354 102.42 97.2211C98.8998 96.9584 95.3821 96.6727 91.8586 96.4557C87.9946 96.2186 84.1305 95.9215 80.2636 95.8701C74.3129 95.7902 68.3566 95.7816 62.4088 95.9615C56.7301 96.1358 51.0542 96.5156 45.3898 96.9384C39.8284 97.3554 34.2842 97.9295 28.7314 98.4493C23.5478 98.9349 18.37 99.4547 13.1864 99.9346C8.80145 100.34 4.41361 100.714 0 101C7.89412 97.781 16.2548 96.0786 24.9017 94.6648C23.8026 93.7251 22.755 92.9082 21.8047 92.0027C20.8544 91.0973 19.95 90.0148 18.9768 89.0665C18.4845 88.5781 18.4044 88.0925 18.8595 87.6098C19.6952 86.7015 20.5768 85.8332 21.4555 84.9535C22.1482 84.2565 22.8494 83.5682 23.5736 82.8484L21.8305 81.1346C28.8917 73.4227 31.7654 64.1827 33.8978 54.6399C32.418 55.0569 31.0842 55.5167 29.7074 55.8024C25.5772 56.6593 21.4841 54.14 20.6569 50.3755C20.033 47.5449 20.8287 44.9114 21.8162 42.2922C22.8323 39.6016 23.774 36.8939 25.4369 34.4375C27.5493 31.3184 33.5286 28.8792 37.7447 30.7786C38.2456 31.0042 38.589 30.9414 39.0756 30.6443C40.5067 29.7646 42.8824 29.9674 44.4796 31.2299C47.4449 33.5777 49.4628 36.4654 50.0581 40.1586C49.4255 40.2888 48.8288 40.5548 48.3093 40.938C47.7899 41.3212 47.3602 41.8125 47.0499 42.3779C46.9006 42.5595 46.6878 42.6779 46.4545 42.7092C45.4213 42.8349 44.3794 42.9177 43.5207 42.9949C43.9701 42.1894 44.6656 41.2554 45.0177 40.23C45.3697 39.2046 45.3669 38.1592 45.3411 37.0881C44.7429 39.5959 44.0674 42.0266 41.8148 43.8146L41.9407 44.0288ZM52.4996 85.3362C49.6374 85.6218 46.8495 85.8875 44.0731 86.1645C39.3938 86.6143 34.6715 86.1634 30.1625 84.8364C29.3296 84.5964 28.3479 84.0794 27.6724 84.2994C26.8995 84.5479 26.3815 85.4676 25.7661 86.1045C25.2308 86.6587 24.7786 87.2471 24.9303 88.0497C25.2595 89.8091 25.872 91.3915 27.8183 92.2312C28.1446 92.3712 28.5969 92.5169 28.7056 92.7711C29.0863 93.628 29.8076 93.4452 30.5031 93.3823C32.3264 93.2224 34.1439 92.9653 35.9729 92.8882C41.4112 92.6625 46.8495 92.5026 52.2878 92.3169C52.9147 92.2969 53.5415 92.3169 54.2485 92.3169C54.2284 89.7749 53.4528 87.4984 52.4996 85.3362ZM38.1225 32.1182L38.0223 32.0725C37.9396 32.1624 37.8631 32.2578 37.7933 32.3581C35.2974 36.4911 33.8806 40.9412 33.2137 45.5855C32.8273 48.2047 33.4541 48.9959 36.2563 49.7471C39.1621 50.5224 42.2201 50.5293 45.1293 49.7671C47.5622 49.1501 48.9275 47.9876 49.5143 45.9968C49.1136 46.2824 48.7901 46.4195 48.6842 46.6337C48.0202 47.9591 46.7551 48.6331 45.3583 49.0901C42.3466 50.1194 39.0807 50.1405 36.0559 49.1501C34.1554 48.5332 33.4799 47.6049 33.832 45.8283C34.1635 44.0707 34.5945 42.3332 35.1228 40.6241C36.0387 37.7679 37.1121 34.9516 38.1225 32.1182Z" fill="#0E582D"/>
<path d="M51.85 1.26474C53.1552 0.996253 54.446 0.636363 55.7684 0.479268C57.7865 0.218581 59.8166 0.0603293 61.8507 0.0051261C63.6268 -0.0250539 65.4025 0.078063 67.1631 0.313604C69.513 0.619225 71.9059 0.90485 74.1499 1.56179C77.0178 2.4345 79.8307 3.47796 82.5735 4.68655C85.4043 5.89476 87.8544 7.69992 90.2072 9.54221C91.9776 10.9567 93.5906 12.5568 95.0186 14.315C96.6465 16.2658 98.1057 18.3507 99.3807 20.5474C100.368 22.2612 100.869 24.2177 101.636 26.0486C102.89 29.042 103.15 32.1896 103.248 35.3258C103.322 37.685 103.004 40.0557 102.784 42.4179C102.552 44.9285 101.699 47.3078 100.709 49.6443C98.4333 55.0083 94.907 59.5984 90.2387 63.46C87.4765 65.7656 84.3906 67.6546 81.0794 69.0669C78.8468 70.0152 76.6257 70.9435 74.1957 71.3862C71.9688 71.7946 69.7563 72.363 67.5037 72.5487C65.377 72.7229 63.2103 72.5487 61.055 72.4316C59.5666 72.3602 58.084 72.1602 56.5927 72.0146C55.7169 69.3954 54.8754 66.8533 53.9995 64.2512C63.7427 62.8574 71.509 58.6244 77.2984 51.5522C81.6948 46.1882 84.0419 40.0957 84.1678 33.4149C84.2708 27.9737 83.083 22.741 80.1893 17.8882C77.3403 13.1125 73.4066 9.2642 68.3881 6.34319C63.3635 3.35088 57.6911 1.60904 51.85 1.26474Z" fill="#CEAF15"/>
</svg>
